<svg xmlns="http://www.w3.org/2000/svg" width="1280" height="174" viewBox="0 0 1280 174" role="img" aria-labelledby="title desc">
  <title id="title">The Vibe Carving loop</title>
  <desc id="desc">Prompt, Slice, Contract, Test, Deploy, Observe, Carve.</desc>
  <defs>
    <linearGradient id="line" x1="0" y1="0" x2="1" y2="0"><stop stop-color="#14b8a6"/><stop offset=".5" stop-color="#3b82f6"/><stop offset="1" stop-color="#8b5cf6"/></linearGradient>
    <linearGradient id="bg" x1="0" y1="0" x2="1" y2="1"><stop stop-color="#f8fafc"/><stop offset="1" stop-color="#eef6f7"/></linearGradient>
  </defs>
  <rect width="1280" height="174" rx="22" fill="url(#bg)" stroke="#cbd5e1"/>
  <path d="M112 78H1168" stroke="url(#line)" stroke-width="4" stroke-linecap="round"/>
  <g font-family="Inter,Segoe UI,Arial,sans-serif" text-anchor="middle">
    <g fill="#fff" stroke-width="4">
      <circle cx="112" cy="78" r="24" stroke="#14b8a6"/><circle cx="288" cy="78" r="24" stroke="#18a9bc"/><circle cx="464" cy="78" r="24" stroke="#258fcf"/><circle cx="640" cy="78" r="24" stroke="#3b82f6"/><circle cx="816" cy="78" r="24" stroke="#5b73e7"/><circle cx="992" cy="78" r="24" stroke="#7465d5"/><circle cx="1168" cy="78" r="24" stroke="#8b5cf6"/>
    </g>
    <g fill="#0f172a" font-size="15" font-weight="800">
      <text x="112" y="132">PROMPT</text><text x="288" y="132">SLICE</text><text x="464" y="132">CONTRACT</text><text x="640" y="132">TEST</text><text x="816" y="132">DEPLOY</text><text x="992" y="132">OBSERVE</text><text x="1168" y="132">CARVE</text>
    </g>
    <g fill="#fff" font-size="12" font-weight="900">
      <text x="112" y="83">01</text><text x="288" y="83">02</text><text x="464" y="83">03</text><text x="640" y="83">04</text><text x="816" y="83">05</text><text x="992" y="83">06</text><text x="1168" y="83">07</text>
    </g>
    <text x="24" y="30" text-anchor="start" fill="#64748b" font-size="11" font-weight="800" letter-spacing="2">THE PRODUCTION LOOP</text>
  </g>
</svg>
